<svg xmlns="http://www.w3.org/2000/svg" viewBox="0 0 900 520" role="img" aria-label="Gemini account artwork">
  <rect width="900" height="520" fill="#07080a"/>
  <rect x="42" y="38" width="816" height="444" rx="38" fill="#0c1015" stroke="#27303d"/>
  <path d="M96 354c140-82 264-106 374-72 98 30 196 8 294-66" fill="none" stroke="#d9e6ff" stroke-width="2" opacity=".22"/>
  <path d="M128 148h166m332 224h154M168 188h96m402 142h84" stroke="#cfe7ff" stroke-width="2" opacity=".2"/>
  <path d="M448 98l40 112 112 40-112 40-40 112-40-112-112-40 112-40 40-112Z" fill="#eef7ff"/>
  <path d="M448 168l22 62 62 22-62 22-22 62-22-62-62-22 62-22 22-62Z" fill="#0c1015"/>
  <text x="76" y="438" fill="#f7fbff" font-family="Arial, sans-serif" font-size="44" font-weight="800">Gemini Pro</text>
  <text x="78" y="468" fill="#9db0ca" font-family="Arial, sans-serif" font-size="18" letter-spacing="4">GOOGLE AI ACCESS</text>
</svg>
